<svg width="57" height="57" viewBox="0 0 57 57" fill="none" xmlns="http://www.w3.org/2000/svg">
<path d="M24.4286 32.5714H4.07144C2.91787 32.5714 1.95159 32.1806 1.17259 31.3989C0.393586 30.6171 0.00272832 29.6509 1.40394e-05 28.5C-0.00270025 27.3491 0.388157 26.3829 1.17259 25.6011C1.95701 24.8194 2.9233 24.4286 4.07144 24.4286H24.4286V4.07144C24.4286 2.91787 24.8194 1.95159 25.6011 1.17259C26.3829 0.393586 27.3491 0.00272832 28.5 1.40394e-05C29.6509 -0.00270025 30.6185 0.388157 31.4029 1.17259C32.1874 1.95701 32.5769 2.9233 32.5714 4.07144V24.4286H52.9286C54.0821 24.4286 55.0498 24.8194 55.8315 25.6011C56.6132 26.3829 57.0027 27.3491 57 28.5C56.9973 29.6509 56.6064 30.6185 55.8274 31.4029C55.0484 32.1874 54.0821 32.5769 52.9286 32.5714H32.5714V52.9286C32.5714 54.0821 32.1806 55.0498 31.3989 55.8315C30.6171 56.6132 29.6509 57.0027 28.5 57C27.3491 56.9973 26.3829 56.6064 25.6011 55.8274C24.8194 55.0484 24.4286 54.0821 24.4286 52.9286V32.5714Z" fill="black"/>
</svg>
